PathFileType	4	(X/Y/Z)	DARI_DATA/Captury_Subj7_bilateral_squat01.trc
DataRate	CameraRate	NumFrames	NumMarkers	Units	OrigDataRate	OrigDataStartFrame	OrigNumFrames
60	60	4	47	mm	60.00239944458008	134	357
Frame#	Time		LeftUpLeg_		RightUpLeg_		LeftLeg_		RightLeg_		LeftFoot_		RightFoot_		LeftToeBase_		RightToeBase_		Knee_Lateral_r		Knee_Lateral_l		Ankle_Lateral_r		Ankle_Lateral_l		LeftArm_		LeftForeArm_		LeftHand_		LeftHandEE		RightArm_		RightForeArm_		RightHand_		RightHandEE		Spine_		Spine1_		Spine2_		Spine3_		Spine4_		Spine5_		Spine_x		Spine_y		Spine_z		RASI		LASI		RIPS		LIPS		RTHI		LTHI		RTIB		LTIB		RTOE		LTOE		RHEE		LHEE		RHipAngles		LHipAngles		RKneeAngles		LKneeAngles		RAnkleAngles		LAnkleAngles
			X1	Y1	Z1	X2	Y2	Z2	X3	Y3	Z3	X4	Y4	Z4	X5	Y5	Z5	X6	Y6	Z6	X7	Y7	Z7	X8	Y8	Z8	X9	Y9	Z9	X10	Y10	Z10	X11	Y11	Z11	X12	Y12	Z12	X13	Y13	Z13	X14	Y14	Z14	X15	Y15	Z15	X16	Y16	Z16	X17	Y17	Z17	X18	Y18	Z18	X19	Y19	Z19	X20	Y20	Z20	X21	Y21	Z21	X22	Y22	Z22	X23	Y23	Z23	X24	Y24	Z24	X25	Y25	Z25	X26	Y26	Z26	X27	Y27	Z27	X28	Y28	Z28	X29	Y29	Z29	X30	Y30	Z30	X31	Y31	Z31	X32	Y32	Z32	X33	Y33	Z33	X34	Y34	Z34	X35	Y35	Z35	X36	Y36	Z36	X37	Y37	Z37	X38	Y38	Z38	X39	Y39	Z39	X40	Y40	Z40	X41	Y41	Z41	X42	Y42	Z42	X43	Y43	Z43	X44	Y44	Z44	X45	Y45	Z45	X46	Y46	Z46	X47	Y47	Z47

134	2.21667	-135.09772	461.66245	196.29927	39.99545	466.60382	212.60027	-347.47656	429.38788	-173.51176	245.88409	426.06903	-160.05693	-276.24939	90.67279	16.25465	182.03922	89.27640	35.66495	-312.18011	27.89185	-99.95972	213.34175	26.84256	-82.06532	290.03506	426.78824	-138.61325	-391.24176	429.49146	-151.27994	218.54272	91.91885	73.81876	-311.55365	92.94984	55.54369	-187.48833	874.06885	-97.62569	-303.51361	885.39545	-377.24796	-323.29651	903.19580	-634.45850	-326.43182	918.11005	-727.58984	98.56446	864.64612	-87.21899	200.98074	875.39526	-372.12973	237.45624	891.82733	-627.59985	247.95195	906.74225	-720.19092	-48.24570	559.70343	182.93974	-45.04044	634.46777	121.12226	-45.14620	698.02356	94.27265	-47.23333	785.39716	73.32758	-46.21649	886.61420	-13.95902	-0.00000	0.00000	-0.00000	0.67393	561.08398	187.49411	-47.64907	604.59009	162.92456	-52.96717	579.67987	227.59875	109.48676	488.96973	101.43031	-184.03104	480.68625	74.10410	-12.30085	545.86176	225.38776	-90.57227	543.65283	218.10077	196.37488	445.89474	71.34358	-293.91357	443.88901	57.38031	258.77728	268.01642	-67.90515	-345.35110	217.24596	-59.84806	237.41022	15.12135	-154.44699	-339.31320	20.04906	-171.77945	152.81555	27.85642	85.72639	-246.79103	29.10502	65.99599	-107.71137	20.37729	3.05567	-109.49979	32.27462	1.08281	-109.94771	0.14999	-1.38355	-110.61889	0.01199	-0.57802	-19.51761	-5.77345	-9.38196	-18.89170	-5.71115	-7.65489
135	2.23333	-135.43176	458.64441	197.28174	39.63976	463.70416	213.77737	-348.21997	429.69501	-172.56918	245.04150	426.35199	-159.48062	-276.12851	90.79465	16.53897	182.07938	89.15399	35.82889	-312.23569	28.12408	-99.68032	213.19794	26.73487	-81.95792	289.22656	427.11877	-138.10892	-391.96603	429.77597	-150.29962	218.63440	91.84244	73.93015	-311.36240	92.95901	55.89747	-187.99550	870.23572	-97.90432	-303.30670	881.44470	-377.82654	-323.25577	899.02405	-635.03943	-326.55280	914.59943	-728.05695	98.04327	860.87476	-87.34112	200.31702	871.74414	-372.29855	237.32906	888.20715	-627.68951	248.81323	902.58655	-720.24792	-48.50834	556.46259	182.80043	-45.24121	630.71790	120.53096	-45.36169	694.10028	93.53157	-47.51894	781.39508	72.67778	-46.63734	882.77399	-14.26677	-0.00000	0.00000	-0.00000	0.40525	557.87622	187.40918	-47.85850	601.08978	162.21484	-53.28502	577.00989	227.19380	109.30653	484.61377	102.43392	-184.17500	476.13184	74.78145	-12.63338	543.14551	225.47479	-90.89513	540.88367	218.10080	195.85579	444.52429	72.12454	-294.41873	442.36798	58.37505	258.34930	268.18542	-67.58369	-345.56281	217.38116	-59.23812	237.19116	15.10752	-154.37970	-339.51157	20.46408	-171.46568	152.87143	27.73909	85.90573	-246.55695	29.18572	66.16203	-108.81953	20.24287	2.87801	-110.62933	32.39462	0.83544	-110.25193	0.14377	-1.37244	-111.02654	-0.09479	-0.56512	-19.40712	-5.77234	-9.48549	-18.88846	-5.71027	-7.58718
136	2.25000	-135.82748	455.99844	197.65392	39.18469	461.47559	214.63898	-349.33008	429.89355	-171.99690	244.29710	426.88263	-159.04376	-275.99527	91.05676	16.74683	182.23512	89.32834	35.93825	-312.32523	28.30519	-99.35922	213.23972	26.80731	-81.82457	288.50400	427.72797	-137.72020	-393.03531	429.88141	-149.64716	218.81990	92.10416	74.00466	-311.14755	93.11858	56.18371	-188.47620	866.81891	-97.98330	-303.15088	877.46558	-378.18881	-322.88199	895.31091	-635.40015	-327.12756	911.46930	-728.27960	97.55247	856.99219	-87.72982	199.80560	868.08105	-372.68622	237.51924	884.75519	-627.96082	249.41582	898.77484	-720.52234	-49.02763	553.86261	182.74823	-45.71250	627.66962	120.27133	-45.85308	690.79803	93.21220	-48.04657	777.89185	72.38165	-47.09913	879.10474	-14.43242	-0.00000	0.00000	-0.00000	-0.13062	555.39288	187.49371	-48.39181	598.34564	161.85239	-53.97305	574.71204	226.98195	109.15089	481.72498	103.36127	-184.23116	472.54333	74.88834	-13.25876	540.90668	225.62234	-91.49397	538.45825	218.02957	195.31131	443.67383	72.70793	-295.09009	440.89969	58.93011	258.02725	268.64114	-67.33805	-345.90512	217.51904	-58.80013	237.20735	15.23709	-154.26398	-339.75735	20.71572	-171.09250	153.01605	27.96761	86.07501	-246.33560	29.48131	66.35886	-109.51828	20.03260	2.77930	-111.41653	32.66492	0.60081	-110.50620	0.13031	-1.36437	-111.44690	-0.13238	-0.55923	-19.25558	-5.77076	-9.59170	-18.86836	-5.70975	-7.42237
137	2.26667	-135.97655	453.12863	198.30286	39.01692	458.81525	215.41147	-350.37531	430.25104	-171.04303	244.24881	427.59744	-158.50287	-275.76208	91.26321	16.92683	182.02066	89.72534	35.87476	-312.34244	28.50937	-99.09938	212.96497	27.24900	-81.92764	288.45129	428.37631	-137.16763	-394.02664	430.05969	-148.58905	218.59784	92.44768	73.95234	-310.83417	93.17853	56.44246	-189.12660	863.66663	-97.86848	-302.97684	874.00397	-378.42157	-323.02875	891.67444	-635.62018	-327.30856	908.84320	-728.31665	96.85555	853.87469	-88.15664	199.35641	864.69141	-373.03442	237.76379	881.44055	-628.20056	249.92567	895.19830	-720.76691	-49.23751	550.98932	183.02504	-45.95982	624.74139	120.31768	-46.18116	687.92975	93.12695	-48.53357	775.11090	72.24031	-47.78282	876.49054	-14.54611	-0.00000	0.00000	-0.00000	-0.34573	552.57812	187.80505	-48.61727	595.37708	161.92722	-54.23632	572.03638	227.15906	109.06282	478.61011	104.10213	-184.28786	469.07733	75.42205	-13.49553	538.25592	225.98816	-91.72237	535.71387	218.34013	195.19923	442.47198	73.36629	-295.57681	439.26346	59.83858	257.90100	269.19165	-67.06965	-346.15997	217.68217	-58.23846	236.95956	15.77875	-154.37402	-339.92487	21.04810	-170.78848	152.67490	28.37350	85.94835	-246.06992	29.67684	66.50586	-110.23096	20.01505	2.76051	-112.16626	32.83559	0.47858	-110.88351	0.14442	-1.35599	-111.86633	-0.09889	-0.55617	-19.18053	-5.76873	-9.64331	-18.82531	-5.70933	-7.19163
